<svg viewBox="0 0 200 200" xmlns="http://www.w3.org/2000/svg" xmlns:xlink="http://www.w3.org/1999/xlink" width="200.000000" height="200.000000" fill="none"><path id="矢量 8" d="M44.6133 32.3067C41.1533 32.44 38.2667 33.6533 35.96 35.96C33.6533 38.2667 32.4333 41.16 32.3067 44.6133L32.3067 155.387C32.44 158.847 33.6533 161.733 35.96 164.04C38.2667 166.347 41.16 167.567 44.6133 167.693L155.387 167.693C158.847 167.56 161.733 166.347 164.04 164.04C166.347 161.733 167.567 158.84 167.693 155.387L167.693 44.6133C167.56 41.1533 166.347 38.2667 164.04 35.96C161.733 33.6533 158.84 32.4333 155.387 32.3067L44.6133 32.3067ZM44.6133 20L155.387 20C162.307 20.1333 168.107 22.5333 172.787 27.2133C177.467 31.8933 179.873 37.6933 180 44.6133L180 155.387C179.867 162.307 177.467 168.107 172.787 172.787C168.107 177.467 162.307 179.873 155.387 180L44.6133 180C37.6933 179.867 31.8933 177.467 27.2133 172.787C22.5333 168.107 20.1267 162.307 20 155.387L20 44.6133C20.1333 37.6933 22.5333 31.8933 27.2133 27.2133C31.8933 22.5333 37.6933 20.1267 44.6133 20ZM75.3867 81.5333C78.8467 81.4133 81.7333 80.1933 84.04 77.8867C86.3467 75.58 87.5 72.6867 87.5 69.2333C87.5 65.7667 86.3467 62.8867 84.0333 60.58C81.7333 58.2667 78.8467 57.1133 75.3867 57.1133C71.92 57.1133 69.04 58.2667 66.7333 60.58C64.42 62.8867 63.2667 65.7667 63.2667 69.2333C63.2667 72.6933 64.42 75.58 66.7333 77.8867C69.04 80.1933 71.92 81.4133 75.3867 81.54L75.3867 81.5333ZM99.2133 63.08L143.08 63.08C147.18 63.08 149.233 65.1267 149.233 69.2333C149.233 73.3333 147.18 75.3867 143.08 75.3867L99.2133 75.3867C98.1525 79.6578 95.9278 83.5509 92.7867 86.6333C88.1067 91.3133 82.3067 93.72 75.3867 93.8467C68.46 93.7133 62.66 91.3133 57.9867 86.6333C53.3 81.9533 50.9 76.1533 50.7667 69.2333C50.9 62.3067 53.3 56.5067 57.98 51.8267C62.66 47.1467 68.46 44.7467 75.38 44.6133C82.3133 44.7467 88.1133 47.1467 92.7867 51.8267C96.0067 55.0467 98.1467 58.7933 99.2133 63.08ZM124.613 143.08C128.08 142.947 130.96 141.733 133.267 139.42C135.58 137.113 136.733 134.233 136.733 130.767C136.733 127.307 135.58 124.42 133.267 122.113C130.96 119.807 128.08 118.653 124.613 118.653C121.153 118.653 118.267 119.807 115.96 122.12C113.653 124.42 112.5 127.307 112.5 130.767C112.5 134.233 113.653 137.113 115.967 139.42C118.267 141.733 121.153 142.953 124.613 143.08ZM100.787 136.92L56.92 136.92C52.82 136.92 50.7667 134.873 50.7667 130.767C50.7667 126.667 52.82 124.613 56.92 124.613L100.787 124.613C101.853 120.333 103.987 116.587 107.213 113.367C111.893 108.687 117.693 106.28 124.613 106.153C131.54 106.287 137.34 108.687 142.013 113.367C146.7 118.047 149.1 123.847 149.233 130.767C149.1 137.693 146.7 143.493 142.02 148.173C137.34 152.853 131.54 155.253 124.62 155.387C117.687 155.253 111.887 152.853 107.213 148.173C104.071 145.089 101.846 141.193 100.787 136.92Z" fill="rgb(255,255,255)" fill-rule="nonzero" />
</svg>
