<svg viewBox="0 0 200 200" xmlns="http://www.w3.org/2000/svg" xmlns:xlink="http://www.w3.org/1999/xlink" width="200.000000" height="200.000000"><path id="矢量 9" d="M179.332 96.7788C163.178 59.2719 132.789 36 100 36C67.2114 36 36.822 59.2719 20.6676 96.7788C20.2273 97.7878 20 98.8768 20 99.9777C20 101.079 20.2273 102.168 20.6676 103.177C36.822 140.684 67.2114 163.955 100 163.955C132.789 163.955 163.178 140.684 179.332 103.177C179.773 102.168 180 101.079 180 99.9777C180 98.8768 179.773 97.7878 179.332 96.7788L179.332 96.7788ZM100 147.961C74.6488 147.961 50.6572 129.647 36.822 99.9777C50.6572 70.308 74.6488 51.9944 100 51.9944C125.351 51.9944 149.343 70.308 163.178 99.9777C149.343 129.647 125.351 147.961 100 147.961L100 147.961ZM100 67.9889C93.6732 67.9888 87.4885 69.865 82.228 73.3799C76.9674 76.8949 72.8673 81.8909 70.4462 87.7361C68.025 93.5813 67.3915 100.013 68.6258 106.218C69.8601 112.424 72.9068 118.124 77.3805 122.597C81.8542 127.071 87.5541 130.118 93.7593 131.352C99.9645 132.586 106.396 131.953 112.242 129.532C118.087 127.11 123.083 123.01 126.598 117.75C130.113 112.489 131.989 106.305 131.989 99.9777C131.989 94.3625 130.511 88.8462 127.703 83.9833C124.896 79.1204 120.857 75.0822 115.994 72.2745C111.132 69.4669 105.615 67.9888 100 67.9888L100 67.9889ZM100 115.972C96.8366 115.972 93.7442 115.034 91.114 113.277C88.4837 111.519 86.4337 109.021 85.2231 106.099C84.0125 103.176 83.6957 99.96 84.3129 96.8574C84.93 93.7547 86.4534 90.9048 88.6902 88.6679C90.9271 86.4311 93.777 84.9078 96.8796 84.2906C99.9823 83.6735 103.198 83.9902 106.121 85.2008C109.043 86.4114 111.541 88.4614 113.299 91.0917C115.056 93.722 115.994 96.8143 115.994 99.9777C115.994 102.785 115.255 105.543 113.852 107.975C112.448 110.406 110.429 112.425 107.997 113.829C105.566 115.233 102.808 115.972 100 115.972L100 115.972Z" fill="rgb(0,0,0)" fill-rule="nonzero" />
</svg>
