<svg viewBox="0 0 200 200" xmlns="http://www.w3.org/2000/svg" xmlns:xlink="http://www.w3.org/1999/xlink" width="200.000000" height="200.000000" fill="none"><path id="矢量 14" d="M159.433 29.4266L167.213 37.2068C167.782 37.7756 167.782 38.7114 167.213 39.2619L36.4181 170.057C35.8493 170.625 34.9135 170.625 34.3447 170.057L26.5645 162.276C25.9957 161.708 25.9957 160.772 26.5645 160.203L45.0424 141.762C35.7392 133.064 27.7389 121.687 21.0597 107.613C19.6468 104.623 19.6468 101.136 21.0597 98.1635L21.0597 98.1452C38.4549 61.4831 64.7313 43.0419 99.9989 43.0419C113.247 43.0419 125.211 45.6475 135.927 50.8404L157.359 29.4266C157.928 28.8578 158.864 28.8578 159.433 29.4266ZM99.2649 70.566C104.219 70.566 108.898 71.6853 113.1 73.6671L125.908 60.8592C118.036 57.7765 109.412 56.2535 99.9989 56.2535C70.4013 56.2535 48.7306 71.2633 33.4272 102.879C39.4091 115.21 46.3452 125.027 54.3639 132.404L70.071 116.696C68.0892 112.494 66.9699 107.815 66.9699 102.861C66.9699 85.0253 81.4292 70.566 99.2649 70.566ZM178.938 98.1452L178.956 98.1635C180.351 101.154 180.351 104.604 178.938 107.577C161.543 144.239 135.266 162.68 99.9989 162.68C86.7506 162.68 74.7868 160.074 64.0524 154.9L74.0895 144.863C81.9614 147.945 90.5856 149.469 99.9989 149.469C129.615 149.469 151.285 134.459 166.571 102.843C160.589 90.5118 153.653 80.6949 145.634 73.3184L154.937 63.9969C164.24 72.6762 172.24 84.0528 178.92 98.1268L178.938 98.1452ZM78.7135 102.861C78.7135 104.457 78.897 106.017 79.2457 107.522L103.926 82.8418C102.439 82.4931 100.861 82.3096 99.2649 82.3096C87.9066 82.3096 78.7135 91.5027 78.7135 102.861ZM95.8152 123.119C96.9345 123.321 98.0905 123.412 99.2649 123.412C110.623 123.412 119.816 114.219 119.835 102.843C119.835 101.668 119.724 100.512 119.541 99.3929L128.918 90.0164C130.624 93.9432 131.56 98.292 131.56 102.843C131.56 120.678 117.1 135.138 99.2649 135.138C94.7142 135.138 90.3654 134.202 86.4386 132.495L95.8152 123.119Z" fill="rgb(255,255,255)" fill-rule="evenodd" />
</svg>
