<svg viewBox="0 0 200 200" xmlns="http://www.w3.org/2000/svg" xmlns:xlink="http://www.w3.org/1999/xlink" width="200.000000" height="200.000000" fill="none"><path id="矢量 12" d="M92.6237 21.9765C94.8664 20.6817 97.4104 20 100 20C102.59 20 105.134 20.6817 107.376 21.9765L163.879 54.6022C166.122 55.8969 167.984 57.7592 169.279 60.0019C170.574 62.2445 171.256 64.7884 171.256 67.378L171.256 132.622C171.256 135.212 170.574 137.755 169.279 139.998C167.984 142.241 166.122 144.103 163.879 145.398L107.376 178.024C105.134 179.318 102.59 180 100 180C97.4104 180 94.8664 179.318 92.6237 178.024L36.1207 145.398C33.878 144.103 32.0157 142.241 30.7209 139.998C29.4261 137.755 28.7444 135.212 28.7443 132.622L28.7443 67.378C28.7444 64.7884 29.4261 62.2445 30.7209 60.0019C32.0157 57.7592 33.878 55.8969 36.1207 54.6022L92.6237 21.9765ZM100 34.7524L43.4971 67.378L43.4971 132.622L100 165.248L156.503 132.622L156.503 67.378L100 34.7524ZM100 70.4945C106.231 70.4945 112.302 72.4671 117.343 76.1296C122.384 79.792 126.136 84.9563 128.061 90.8823C129.987 96.8083 129.987 103.192 128.061 109.118C126.136 115.044 122.384 120.208 117.343 123.87C112.302 127.533 106.231 129.505 100 129.505C93.7691 129.505 87.6981 127.533 82.6572 123.87C77.6162 120.208 73.8641 115.044 71.9387 109.118C70.0132 103.192 70.0132 96.8083 71.9387 90.8823C73.8641 84.9563 77.6162 79.792 82.6571 76.1296C87.6981 72.4671 93.7691 70.4945 100 70.4945ZM100 85.2473C96.8846 85.2473 93.8491 86.2336 91.3286 88.0648C88.8081 89.896 86.9321 92.4782 85.9693 95.4412C85.0066 98.4041 85.0066 101.596 85.9693 104.559C86.9321 107.522 88.8081 110.104 91.3286 111.935C93.8491 113.766 96.8846 114.753 100 114.753C103.115 114.753 106.151 113.766 108.671 111.935C111.192 110.104 113.068 107.522 114.031 104.559C114.993 101.596 114.993 98.4041 114.031 95.4412C113.068 92.4782 111.192 89.896 108.671 88.0648C106.151 86.2336 103.115 85.2473 100 85.2473Z" fill="rgb(0,0,0)" fill-rule="nonzero" />
</svg>
