<svg viewBox="0 0 200 200" xmlns="http://www.w3.org/2000/svg" xmlns:xlink="http://www.w3.org/1999/xlink" width="200.000000" height="200.000000" fill="none"><path id="矢量 13" d="M123.048 20C125.054 20 127.025 20.5281 128.762 21.5311C130.499 22.5342 131.942 23.9769 132.945 25.7143C133.948 27.4516 134.476 29.4224 134.476 31.4286L134.476 46.6667L174.857 46.6667C175.695 46.6667 176.381 47.3524 176.381 48.1905L176.381 56.5714C176.381 56.8389 176.311 57.1017 176.177 57.3333C176.043 57.565 175.851 57.7573 175.619 57.8911C175.387 58.0248 175.125 58.0952 174.857 58.0952L164.952 58.0952L164.952 157.143C164.952 161.155 163.896 165.097 161.89 168.571C159.884 172.046 156.999 174.932 153.524 176.938C150.049 178.944 146.108 180 142.095 180L58.2857 180C54.2734 180 50.3319 178.944 46.8571 176.938C43.3824 174.932 40.497 172.046 38.4908 168.571C36.4847 165.097 35.4286 161.155 35.4286 157.143L35.4286 58.0952L25.5238 58.0952C25.2563 58.0952 24.9936 58.0248 24.7619 57.8911C24.5303 57.7574 24.3379 57.565 24.2042 57.3333C24.0704 57.1017 24 56.8389 24 56.5714L24 48.1905C24 47.3524 24.6857 46.6667 25.5238 46.6667L65.9048 46.6667L65.9048 31.4286C65.9048 29.4224 66.4328 27.4516 67.4359 25.7143C68.439 23.9769 69.8817 22.5342 71.619 21.5311C73.3564 20.5281 75.3272 20 77.3333 20L123.048 20ZM153.524 58.0952L46.8571 58.0952L46.8571 157.143C46.857 159.073 47.3459 160.972 48.2782 162.663C49.2104 164.353 50.5557 165.78 52.1884 166.81C53.8211 167.84 55.6881 168.439 57.6152 168.552L58.2857 168.571L142.095 168.571C144.026 168.572 145.925 168.083 147.615 167.15C149.305 166.218 150.732 164.873 151.762 163.24C152.792 161.607 153.392 159.74 153.505 157.813L153.524 157.143L153.524 58.0952L153.524 58.0952ZM83.4286 80.9524C84.2667 80.9524 84.9524 81.6381 84.9524 82.4762L84.9524 140.381C84.9524 140.648 84.882 140.911 84.7482 141.143C84.6145 141.375 84.4221 141.567 84.1905 141.701C83.9588 141.834 83.6961 141.905 83.4286 141.905L75.0476 141.905C74.7801 141.905 74.5174 141.834 74.2857 141.701C74.0541 141.567 73.8617 141.375 73.728 141.143C73.5942 140.911 73.5238 140.648 73.5238 140.381L73.5238 82.4762C73.5238 81.6381 74.2095 80.9524 75.0476 80.9524L83.4286 80.9524L83.4286 80.9524ZM125.333 80.9524C126.171 80.9524 126.857 81.6381 126.857 82.4762L126.857 140.381C126.857 140.648 126.787 140.911 126.653 141.143C126.519 141.375 126.327 141.567 126.095 141.701C125.864 141.834 125.601 141.905 125.333 141.905L116.952 141.905C116.685 141.905 116.422 141.834 116.19 141.701C115.959 141.567 115.766 141.375 115.633 141.143C115.499 140.911 115.429 140.648 115.429 140.381L115.429 82.4762C115.429 81.6381 116.114 80.9524 116.952 80.9524L125.333 80.9524L125.333 80.9524ZM123.048 31.4286L77.3333 31.4286L77.3333 46.6667L123.048 46.6667L123.048 31.4286Z" fill="rgb(0,0,0)" fill-rule="nonzero" />
</svg>
