<svg viewBox="0 0 200 200" xmlns="http://www.w3.org/2000/svg" xmlns:xlink="http://www.w3.org/1999/xlink" width="200.000000" height="200.000000"><path id="矢量 15" d="M60.0115 169.266C72.1691 176.288 85.9598 179.99 100 180C114.04 179.99 127.831 176.288 139.988 169.266C152.146 162.243 162.243 152.146 169.266 139.988C176.288 127.831 179.99 114.04 180 100C179.99 85.9598 176.288 72.1691 169.266 60.0115C162.243 47.854 152.146 37.7572 139.988 30.7343C127.831 23.7115 114.04 20.0096 100 20C85.9598 20.0096 72.1691 23.7115 60.0115 30.7343C47.854 37.7572 37.7572 47.854 30.7343 60.0115C23.7115 72.1691 20.0096 85.9598 20 100C20.0096 114.04 23.7115 127.831 30.7343 139.988C37.7572 152.146 47.854 162.243 60.0115 169.266ZM68.0117 44.6063C77.7382 38.9946 88.7708 36.0429 100 36.048C113.501 36.0542 126.654 40.3331 137.575 48.272C148.496 56.2109 156.624 67.4023 160.795 80.2433C164.966 93.0842 164.966 106.916 160.795 119.757C156.624 132.598 148.496 143.789 137.575 151.728C126.654 159.667 113.501 163.946 100 163.952C88.7708 163.957 77.7382 161.005 68.0117 155.394C58.2852 149.782 50.2078 141.708 44.5917 131.984C38.9756 122.26 36.0189 111.229 36.0189 100C36.0189 88.7708 38.9756 77.7395 44.5917 68.0156C50.2078 58.2917 58.2852 50.2179 68.0117 44.6063ZM120.335 128.365C119.285 128.369 118.244 128.159 117.278 127.746C116.312 127.333 115.44 126.727 114.717 125.965L99.998 111.242L85.283 125.965C84.576 126.748 83.7075 127.368 82.7374 127.782C81.7674 128.196 80.7189 128.395 79.6645 128.365C78.6138 128.369 77.5734 128.159 76.6072 127.746C75.6409 127.333 74.7694 126.727 74.0461 125.965C70.8387 122.746 70.8387 117.663 74.0461 114.728L88.7627 100.003L74.0352 85.2721C70.8278 82.0646 70.8278 76.9808 74.0352 74.0352C77.2426 70.8278 82.3265 70.8278 85.2721 74.0352L99.9985 88.7616L114.717 74.0352C117.924 70.8278 123.008 70.8278 125.954 74.0352C129.161 77.2426 129.161 82.3265 125.954 85.2721L111.235 99.9985L125.943 114.706C129.15 117.914 129.15 122.997 125.943 125.943C125.22 126.705 124.348 127.311 123.382 127.724C122.416 128.137 121.375 128.347 120.325 128.343L120.335 128.365Z" fill="rgb(0,0,0)" fill-rule="evenodd" />
</svg>
